<svg viewBox="0 0 60 60" fill="none" xmlns="http://www.w3.org/2000/svg">
<g id="nav-return-arrow">
<path id="icon/navigation/arrow_downward_24px" d="M46.9781 27.5125L19.0531 27.5125L31.2531 15.3125C32.2281 14.3375 32.2281 12.7375 31.2531 11.7625C30.2781 10.7875 28.7031 10.7875 27.7281 11.7625L11.2531 28.2375C10.2781 29.2125 10.2781 30.7875 11.2531 31.7625L27.7281 48.2375C28.7031 49.2125 30.2781 49.2125 31.2531 48.2375C31.7213 47.7704 31.9844 47.1363 31.9844 46.475C31.9844 45.8137 31.7213 45.1796 31.2531 44.7125L19.0531 32.5125L46.9781 32.5125C48.3531 32.5125 49.4781 31.3875 49.4781 30.0125C49.4781 28.6375 48.3531 27.5125 46.9781 27.5125Z" />
</g>
</svg>
