<svg width="100%" height="100%" viewBox="0 0 60 60" fill="none" xmlns="http://www.w3.org/2000/svg">
<g id="nav-about">
<path id="icon/action/info_outline_24px" fill-rule="evenodd" clip-rule="evenodd" d="M30 5C16.2 5 5 16.2 5 30C5 43.8 16.2 55 30 55C43.8 55 55 43.8 55 30C55 16.2 43.8 5 30 5ZM27.5 17.5V22.5H32.5V17.5H27.5ZM32.5 40C32.5 41.375 31.375 42.5 30 42.5C28.625 42.5 27.5 41.375 27.5 40V30C27.5 28.625 28.625 27.5 30 27.5C31.375 27.5 32.5 28.625 32.5 30V40ZM10 30C10 41.025 18.975 50 30 50C41.025 50 50 41.025 50 30C50 18.975 41.025 10 30 10C18.975 10 10 18.975 10 30Z" />
</g>
</svg>
