<svg width="100%" height="100%" viewBox="0 0 60 60" fill="none" xmlns="http://www.w3.org/2000/svg">
<g id="nav-menu">
<path id="icon/content/copy_24px" fill-rule="evenodd" clip-rule="evenodd" d="M38.75 2.5H11.25C8.5 2.5 6.25 4.75 6.25 7.5V40C6.25 41.375 7.375 42.5 8.75 42.5C10.125 42.5 11.25 41.375 11.25 40V10C11.25 8.625 12.375 7.5 13.75 7.5H38.75C40.125 7.5 41.25 6.375 41.25 5C41.25 3.625 40.125 2.5 38.75 2.5ZM48.75 12.5H21.25C18.5 12.5 16.25 14.75 16.25 17.5V52.5C16.25 55.25 18.5 57.5 21.25 57.5H48.75C51.5 57.5 53.75 55.25 53.75 52.5V17.5C53.75 14.75 51.5 12.5 48.75 12.5ZM23.75 52.5H46.25C47.625 52.5 48.75 51.375 48.75 50V20C48.75 18.625 47.625 17.5 46.25 17.5H23.75C22.375 17.5 21.25 18.625 21.25 20V50C21.25 51.375 22.375 52.5 23.75 52.5Z"/>
</g>
</svg>
