<svg viewBox="0 0 60 60" fill="none" xmlns="http://www.w3.org/2000/svg">
<g id="nav-return-arrow">
<path id="icon/navigation/arrow_downward_24px" d="M27.5125 13.022L27.5125 40.947L15.3125 28.747C14.3375 27.772 12.7375 27.772 11.7625 28.747C10.7875 29.722 10.7875 31.297 11.7625 32.272L28.2375 48.747C29.2125 49.722 30.7875 49.722 31.7625 48.747L48.2375 32.272C49.2125 31.297 49.2125 29.722 48.2375 28.747C47.7704 28.2788 47.1363 28.0158 46.475 28.0158C45.8137 28.0158 45.1796 28.2788 44.7125 28.747L32.5125 40.947L32.5125 13.022C32.5125 11.647 31.3875 10.522 30.0125 10.522C28.6375 10.522 27.5125 11.647 27.5125 13.022Z" />
</g>
</svg>
